# Blender v2.82 (sub 7) OBJ File: 'hzb-test-scene.blend'
# www.blender.org
mtllib hzb-test-scene-pawn.mtl
o Circle
v 1.957390 0.000000 0.301136
v 1.899924 0.000000 0.312567
v 1.851207 0.000000 0.345119
v 1.818655 0.000000 0.393836
v 1.807225 0.000000 0.451302
v 1.818655 0.000000 0.508767
v 1.851207 0.000000 0.557485
v 1.899924 0.000000 0.590036
v 1.957390 0.000000 0.601467
v 2.014856 0.000000 0.590036
v 2.063573 0.000000 0.557485
v 2.096125 0.000000 0.508767
v 2.107555 0.000000 0.451302
v 2.096125 0.000000 0.393836
v 2.063573 0.000000 0.345119
v 2.014856 0.000000 0.312567
v 1.957390 0.087669 0.301136
v 1.899924 0.087669 0.312567
v 1.851207 0.087669 0.345119
v 1.818655 0.087669 0.393836
v 1.807225 0.087669 0.451302
v 1.818655 0.087669 0.508767
v 1.851207 0.087669 0.557485
v 1.899924 0.087669 0.590036
v 1.957390 0.087669 0.601467
v 2.014856 0.087669 0.590036
v 2.063573 0.087669 0.557485
v 2.096125 0.087669 0.508767
v 2.107555 0.087669 0.451302
v 2.096125 0.087669 0.393836
v 2.063573 0.087669 0.345119
v 2.014856 0.087669 0.312567
v 1.957390 0.116895 0.375853
v 1.928517 0.116895 0.381596
v 1.904040 0.116895 0.397952
v 1.887685 0.116895 0.422429
v 1.881942 0.116895 0.451302
v 1.887685 0.116895 0.480174
v 1.904040 0.116895 0.504652
v 1.928517 0.116895 0.521007
v 1.957390 0.116895 0.526750
v 1.986263 0.116895 0.521007
v 2.010740 0.116895 0.504652
v 2.027095 0.116895 0.480174
v 2.032838 0.116895 0.451302
v 2.027095 0.116895 0.422429
v 2.010740 0.116895 0.397952
v 1.986263 0.116895 0.381596
v 1.957390 0.194372 0.392411
v 1.934853 0.194372 0.396893
v 1.915748 0.194372 0.409659
v 1.902982 0.194372 0.428765
v 1.898499 0.194372 0.451302
v 1.902982 0.194372 0.473838
v 1.915748 0.194372 0.492944
v 1.934853 0.194372 0.505710
v 1.957390 0.194372 0.510193
v 1.979927 0.194372 0.505710
v 1.999032 0.194372 0.492944
v 2.011798 0.194372 0.473838
v 2.016281 0.194372 0.451302
v 2.011798 0.194372 0.428765
v 1.999032 0.194372 0.409659
v 1.979927 0.194372 0.396893
v 1.957390 0.329127 0.392411
v 1.934853 0.329127 0.396893
v 1.915748 0.329127 0.409659
v 1.902982 0.329127 0.428765
v 1.898499 0.329127 0.451302
v 1.902982 0.329127 0.473838
v 1.915748 0.329127 0.492944
v 1.934853 0.329127 0.505710
v 1.957390 0.329127 0.510193
v 1.979927 0.329127 0.505710
v 1.999032 0.329127 0.492944
v 2.011798 0.329127 0.473838
v 2.016281 0.329127 0.451302
v 2.011798 0.329127 0.428765
v 1.999032 0.329127 0.409659
v 1.979927 0.329127 0.396893
v 1.957390 0.395114 0.385015
v 1.932023 0.395114 0.390061
v 1.910519 0.395114 0.404430
v 1.896150 0.395114 0.425935
v 1.891104 0.395114 0.451302
v 1.896150 0.395114 0.476668
v 1.910519 0.395114 0.498173
v 1.932023 0.395114 0.512542
v 1.957390 0.395114 0.517588
v 1.982757 0.395114 0.512542
v 2.004261 0.395114 0.498173
v 2.018631 0.395114 0.476668
v 2.023676 0.395114 0.451302
v 2.018631 0.395114 0.425935
v 2.004261 0.395114 0.404430
v 1.982757 0.395114 0.390061
v 1.957390 0.451252 0.323492
v 1.908479 0.451252 0.333221
v 1.867015 0.451252 0.360927
v 1.839309 0.451252 0.402391
v 1.829581 0.451252 0.451302
v 1.839309 0.451252 0.500212
v 1.867015 0.451252 0.541676
v 1.908479 0.451252 0.569382
v 1.957390 0.451252 0.579111
v 2.006300 0.451252 0.569382
v 2.047765 0.451252 0.541676
v 2.075470 0.451252 0.500212
v 2.085199 0.451252 0.451302
v 2.075470 0.451252 0.402391
v 2.047765 0.451252 0.360927
v 2.006300 0.451252 0.333221
v 1.957390 0.488375 0.323492
v 1.908479 0.488375 0.333221
v 1.867015 0.488375 0.360927
v 1.839309 0.488375 0.402391
v 1.829581 0.488375 0.451302
v 1.839309 0.488375 0.500212
v 1.867015 0.488375 0.541676
v 1.908479 0.488375 0.569382
v 1.957390 0.488375 0.579111
v 2.006300 0.488375 0.569382
v 2.047765 0.488375 0.541676
v 2.075470 0.488375 0.500212
v 2.085199 0.488375 0.451302
v 2.075470 0.488375 0.402391
v 2.047765 0.488375 0.360927
v 2.006300 0.488375 0.333221
v 1.957390 0.488375 0.312067
v 1.904107 0.488375 0.322665
v 1.858936 0.488375 0.352848
v 1.828754 0.488375 0.398019
v 1.818155 0.488375 0.451302
v 1.828754 0.488375 0.504585
v 1.858936 0.488375 0.549756
v 1.904107 0.488375 0.579938
v 1.957390 0.488375 0.590537
v 2.010673 0.488375 0.579938
v 2.055844 0.488375 0.549756
v 2.086026 0.488375 0.504585
v 2.096625 0.488375 0.451302
v 2.086026 0.488375 0.398019
v 2.055844 0.488375 0.352848
v 2.010673 0.488375 0.322665
v 1.957390 0.660067 0.312067
v 1.904107 0.660067 0.322665
v 1.858936 0.660067 0.352848
v 1.828754 0.660067 0.398019
v 1.818155 0.660067 0.451302
v 1.828754 0.660067 0.504585
v 1.858936 0.660067 0.549756
v 1.904107 0.660067 0.579938
v 1.957390 0.660067 0.590537
v 2.010673 0.660067 0.579938
v 2.055844 0.660067 0.549756
v 2.086026 0.660067 0.504585
v 2.096625 0.660067 0.451302
v 2.086026 0.660067 0.398019
v 2.055844 0.660067 0.352848
v 2.010673 0.660067 0.322665
v 1.957390 0.681084 0.338795
v 1.914336 0.681084 0.347359
v 1.877836 0.681084 0.371748
v 1.853448 0.681084 0.408247
v 1.844884 0.681084 0.451302
v 1.853448 0.681084 0.494356
v 1.877836 0.681084 0.530855
v 1.914336 0.681084 0.555244
v 1.957390 0.681084 0.563808
v 2.000444 0.681084 0.555244
v 2.036944 0.681084 0.530855
v 2.061332 0.681084 0.494356
v 2.069896 0.681084 0.451302
v 2.061332 0.681084 0.408247
v 2.036944 0.681084 0.371748
v 2.000444 0.681084 0.347359
v 1.957390 0.681084 0.392640
v 1.934941 0.681084 0.397105
v 1.915910 0.681084 0.409821
v 1.903193 0.681084 0.428853
v 1.898728 0.681084 0.451302
v 1.903193 0.681084 0.473751
v 1.915910 0.681084 0.492782
v 1.934941 0.681084 0.505498
v 1.957390 0.681084 0.509964
v 1.979839 0.681084 0.505498
v 1.998870 0.681084 0.492782
v 2.011587 0.681084 0.473751
v 2.016052 0.681084 0.451302
v 2.011587 0.681084 0.428853
v 1.998870 0.681084 0.409821
v 1.979839 0.681084 0.397105
v 1.957390 0.642414 0.416783
v 1.944180 0.642414 0.419410
v 1.932981 0.642414 0.426893
v 1.925499 0.642414 0.438092
v 1.922871 0.642414 0.451302
v 1.925499 0.642414 0.464511
v 1.932981 0.642414 0.475710
v 1.944180 0.642414 0.483193
v 1.957390 0.642414 0.485821
v 1.970600 0.642414 0.483193
v 1.981799 0.642414 0.475710
v 1.989281 0.642414 0.464511
v 1.991909 0.642414 0.451302
v 1.989281 0.642414 0.438092
v 1.981799 0.642414 0.426893
v 1.970600 0.642414 0.419410
v 1.957390 0.642414 0.451302
v 1.957390 0.642414 0.451302
v 1.957390 0.642414 0.451302
v 1.957390 0.642414 0.451302
v 1.957390 0.642414 0.451302
v 1.957390 0.642414 0.451302
v 1.957390 0.642414 0.451302
v 1.957390 0.642414 0.451302
v 1.957390 0.642414 0.451302
v 1.957390 0.642414 0.451302
v 1.957390 0.642414 0.451302
v 1.957390 0.642414 0.451302
v 1.957390 0.642414 0.451302
v 1.957390 0.642414 0.451302
v 1.957390 0.642414 0.451302
v 1.957390 0.642414 0.451302
v 1.957390 0.000000 0.451302
v 1.957390 0.000000 0.451302
v 1.957390 0.000000 0.451302
v 1.957390 0.000000 0.451302
v 1.957390 0.000000 0.451302
v 1.957390 0.000000 0.451302
v 1.957390 0.000000 0.451302
v 1.957390 0.000000 0.451302
v 1.957390 0.000000 0.451302
v 1.957390 0.000000 0.451302
v 1.957390 0.000000 0.451302
v 1.957390 0.000000 0.451302
v 1.957390 0.000000 0.451302
v 1.957390 0.000000 0.451302
v 1.957390 0.000000 0.451302
v 1.957390 0.000000 0.451302
vt 0.000000 0.000000
vt 0.000000 0.000000
vt 0.000000 0.000000
vt 0.000000 0.000000
vt 0.000000 0.000000
vt 0.000000 0.000000
vt 0.000000 0.000000
vt 0.000000 0.000000
vt 0.000000 0.000000
vt 0.000000 0.000000
vt 0.000000 0.000000
vt 0.000000 0.000000
vt 0.000000 0.000000
vt 0.000000 0.000000
vt 0.000000 0.000000
vt 0.000000 0.000000
vt 0.000000 0.000000
vt 0.000000 0.000000
vt 0.000000 0.000000
vt 0.000000 0.000000
vt 0.000000 0.000000
vt 0.000000 0.000000
vt 0.000000 0.000000
vt 0.000000 0.000000
vt 0.000000 0.000000
vt 0.000000 0.000000
vt 0.000000 0.000000
vt 0.000000 0.000000
vt 0.000000 0.000000
vt 0.000000 0.000000
vt 0.000000 0.000000
vt 0.000000 0.000000
vt 0.000000 0.000000
vt 0.000000 0.000000
vt 0.000000 0.000000
vt 0.000000 0.000000
vt 0.000000 0.000000
vt 0.000000 0.000000
vt 0.000000 0.000000
vt 0.000000 0.000000
vt 0.000000 0.000000
vt 0.000000 0.000000
vt 0.000000 0.000000
vt 0.000000 0.000000
vt 0.000000 0.000000
vt 0.000000 0.000000
vt 0.000000 0.000000
vt 0.000000 0.000000
vt 0.000000 0.000000
vt 0.000000 0.000000
vt 0.000000 0.000000
vt 0.000000 0.000000
vt 0.000000 0.000000
vt 0.000000 0.000000
vt 0.000000 0.000000
vt 0.000000 0.000000
vt 0.000000 0.000000
vt 0.000000 0.000000
vt 0.000000 0.000000
vt 0.000000 0.000000
vt 0.000000 0.000000
vt 0.000000 0.000000
vt 0.000000 0.000000
vt 0.000000 0.000000
vt 0.000000 0.000000
vt 0.000000 0.000000
vt 0.000000 0.000000
vt 0.000000 0.000000
vt 0.000000 0.000000
vt 0.000000 0.000000
vt 0.000000 0.000000
vt 0.000000 0.000000
vt 0.000000 0.000000
vt 0.000000 0.000000
vt 0.000000 0.000000
vt 0.000000 0.000000
vt 0.000000 0.000000
vt 0.000000 0.000000
vt 0.000000 0.000000
vt 0.000000 0.000000
vt 0.000000 0.000000
vt 0.000000 0.000000
vt 0.000000 0.000000
vt 0.000000 0.000000
vt 0.000000 0.000000
vt 0.000000 0.000000
vt 0.000000 0.000000
vt 0.000000 0.000000
vt 0.000000 0.000000
vt 0.000000 0.000000
vt 0.000000 0.000000
vt 0.000000 0.000000
vt 0.000000 0.000000
vt 0.000000 0.000000
vt 0.000000 0.000000
vt 0.000000 0.000000
vt 0.000000 0.000000
vt 0.000000 0.000000
vt 0.000000 0.000000
vt 0.000000 0.000000
vt 0.000000 0.000000
vt 0.000000 0.000000
vt 0.000000 0.000000
vt 0.000000 0.000000
vt 0.000000 0.000000
vt 0.000000 0.000000
vt 0.000000 0.000000
vt 0.000000 0.000000
vt 0.000000 0.000000
vt 0.000000 0.000000
vt 0.000000 0.000000
vt 0.000000 0.000000
vt 0.000000 0.000000
vt 0.000000 0.000000
vt 0.000000 0.000000
vt 0.000000 0.000000
vt 0.000000 0.000000
vt 0.000000 0.000000
vt 0.000000 0.000000
vt 0.000000 0.000000
vt 0.000000 0.000000
vt 0.000000 0.000000
vt 0.000000 0.000000
vt 0.000000 0.000000
vt 0.000000 0.000000
vt 0.000000 0.000000
vt 0.000000 0.000000
vt 0.000000 0.000000
vt 0.000000 0.000000
vt 0.000000 0.000000
vt 0.000000 0.000000
vt 0.000000 0.000000
vt 0.000000 0.000000
vt 0.000000 0.000000
vt 0.000000 0.000000
vt 0.000000 0.000000
vt 0.000000 0.000000
vt 0.000000 0.000000
vt 0.000000 0.000000
vt 0.000000 0.000000
vt 0.000000 0.000000
vt 0.000000 0.000000
vt 0.000000 0.000000
vt 0.000000 0.000000
vt 0.000000 0.000000
vt 0.000000 0.000000
vt 0.000000 0.000000
vt 0.000000 0.000000
vt 0.000000 0.000000
vt 0.000000 0.000000
vt 0.000000 0.000000
vt 0.000000 0.000000
vt 0.000000 0.000000
vt 0.000000 0.000000
vt 0.000000 0.000000
vt 0.000000 0.000000
vt 0.000000 0.000000
vt 0.000000 0.000000
vt 0.000000 0.000000
vt 0.000000 0.000000
vt 0.000000 0.000000
vt 0.000000 0.000000
vt 0.000000 0.000000
vt 0.000000 0.000000
vt 0.000000 0.000000
vt 0.000000 0.000000
vt 0.000000 0.000000
vt 0.000000 0.000000
vt 0.000000 0.000000
vt 0.000000 0.000000
vt 0.000000 0.000000
vt 0.000000 0.000000
vt 0.000000 0.000000
vt 0.000000 0.000000
vt 0.000000 0.000000
vt 0.000000 0.000000
vt 0.000000 0.000000
vt 0.000000 0.000000
vt 0.000000 0.000000
vt 0.000000 0.000000
vt 0.000000 0.000000
vt 0.000000 0.000000
vt 0.000000 0.000000
vt 0.000000 0.000000
vt 0.000000 0.000000
vt 0.000000 0.000000
vt 0.000000 0.000000
vt 0.000000 0.000000
vt 0.000000 0.000000
vt 0.000000 0.000000
vt 0.000000 0.000000
vt 0.000000 0.000000
vt 0.000000 0.000000
vt 0.000000 0.000000
vt 0.000000 0.000000
vt 0.000000 0.000000
vt 0.000000 0.000000
vt 0.000000 0.000000
vt 0.000000 0.000000
vt 0.000000 0.000000
vt 0.000000 0.000000
vt 0.000000 0.000000
vt 0.000000 0.000000
vt 0.000000 0.000000
vt 0.000000 0.000000
vt 0.000000 0.000000
vt 0.000000 0.000000
vt 0.000000 0.000000
vt 0.000000 0.000000
vt 0.000000 0.000000
vt 0.000000 0.000000
vt 0.000000 0.000000
vt 0.000000 0.000000
vt 0.000000 0.000000
vt 0.000000 0.000000
vt 0.000000 0.000000
vt 0.000000 0.000000
vt 0.000000 0.000000
vt 0.000000 0.000000
vt 0.000000 0.000000
vt 0.000000 0.000000
vt 0.000000 0.000000
vt 0.000000 0.000000
vt 0.000000 0.000000
vt 0.000000 0.000000
vt 0.000000 0.000000
vt 0.000000 0.000000
vt 0.000000 0.000000
vt 0.000000 0.000000
vt 0.000000 0.000000
vt 0.000000 0.000000
vt 0.000000 0.000000
vt 0.000000 0.000000
vt 0.000000 0.000000
vt 0.000000 0.000000
vt 0.000000 0.000000
vt 0.000000 0.000000
vt 0.000000 0.000000
vt 0.000000 0.000000
vt 0.000000 0.000000
vn -0.8315 0.0000 0.5556
vn 0.5556 0.0000 -0.8315
vn -0.5556 0.0000 0.8315
vn 0.1951 0.0000 -0.9808
vn 0.1951 0.0000 0.9808
vn -0.1951 0.0000 0.9808
vn -0.1951 0.0000 -0.9808
vn 0.5556 0.0000 0.8315
vn -0.5556 0.0000 -0.8315
vn 0.8315 0.0000 0.5556
vn -0.8315 0.0000 -0.5556
vn 0.9808 0.0000 0.1951
vn -0.9808 0.0000 -0.1951
vn 0.9808 0.0000 -0.1951
vn -0.9808 0.0000 0.1951
vn 0.8315 0.0000 -0.5556
vn 0.3633 -0.9289 -0.0723
vn -0.3633 -0.9289 0.0723
vn 0.3080 -0.9289 -0.2058
vn -0.3080 -0.9289 0.2058
vn 0.2058 -0.9289 -0.3080
vn -0.2058 -0.9289 0.3080
vn 0.0723 -0.9289 -0.3633
vn 0.0723 -0.9289 0.3633
vn -0.0723 -0.9289 0.3633
vn -0.0723 -0.9289 -0.3633
vn 0.2058 -0.9289 0.3080
vn -0.2058 -0.9289 -0.3080
vn 0.3080 -0.9289 0.2058
vn -0.3080 -0.9289 -0.2058
vn 0.3633 -0.9289 0.0723
vn -0.3633 -0.9289 -0.0723
vn -0.5438 -0.2051 -0.8138
vn 0.8138 -0.2051 0.5438
vn -0.8138 -0.2051 -0.5438
vn 0.9599 -0.2051 0.1909
vn -0.9599 -0.2051 -0.1909
vn 0.9599 -0.2051 -0.1909
vn -0.9599 -0.2051 0.1909
vn 0.8138 -0.2051 -0.5438
vn -0.8138 -0.2051 0.5438
vn 0.5438 -0.2051 -0.8138
vn -0.5438 -0.2051 0.8138
vn 0.1909 -0.2051 -0.9599
vn 0.1909 -0.2051 0.9599
vn -0.1909 -0.2051 0.9599
vn -0.1909 -0.2051 -0.9599
vn 0.5438 -0.2051 0.8138
vn -0.9749 0.1093 0.1939
vn 0.8265 0.1093 -0.5522
vn -0.8265 0.1093 0.5522
vn 0.5522 0.1093 -0.8265
vn -0.5522 0.1093 0.8265
vn 0.1939 0.1093 -0.9749
vn 0.1939 0.1093 0.9749
vn -0.1939 0.1093 0.9749
vn -0.1939 0.1093 -0.9749
vn 0.5522 0.1093 0.8265
vn -0.5522 0.1093 -0.8265
vn 0.8265 0.1093 0.5522
vn -0.8265 0.1093 -0.5522
vn 0.9749 0.1093 0.1939
vn -0.9749 0.1093 -0.1939
vn 0.9749 0.1093 -0.1939
vn 0.5664 0.7321 0.3784
vn -0.5664 0.7321 -0.3784
vn 0.6681 0.7321 0.1329
vn -0.6681 0.7321 -0.1329
vn 0.6681 0.7321 -0.1329
vn -0.6681 0.7321 0.1329
vn 0.5664 0.7321 -0.3784
vn -0.5664 0.7321 0.3784
vn 0.3784 0.7321 -0.5664
vn -0.3784 0.7321 0.5664
vn 0.1329 0.7321 -0.6681
vn 0.1329 0.7321 0.6681
vn -0.1329 0.7321 0.6681
vn -0.1329 0.7321 -0.6681
vn 0.3784 0.7321 0.5664
vn -0.3784 0.7321 -0.5664
vn 0.0000 1.0000 0.0000
vn 0.1220 -0.7802 -0.6135
vn 0.1220 -0.7802 0.6135
vn -0.1220 -0.7802 0.6135
vn -0.1220 -0.7802 -0.6135
vn 0.3475 -0.7802 0.5201
vn -0.3475 -0.7802 -0.5201
vn 0.5201 -0.7802 0.3475
vn -0.5201 -0.7802 -0.3475
vn 0.6135 -0.7802 0.1220
vn -0.6135 -0.7802 -0.1220
vn 0.6135 -0.7802 -0.1220
vn -0.6135 -0.7802 0.1220
vn 0.5201 -0.7802 -0.3475
vn -0.5201 -0.7802 0.3475
vn 0.3475 -0.7802 -0.5201
vn -0.3475 -0.7802 0.5201
vn 0.0000 -1.0000 0.0000
vn 0.7091 -0.5222 0.4738
vn -0.8364 -0.5222 -0.1664
vn 0.8364 -0.5222 0.1664
vn -0.8364 -0.5222 0.1664
vn 0.8364 -0.5222 -0.1664
vn -0.7091 -0.5222 0.4738
vn 0.7091 -0.5222 -0.4738
vn -0.4738 -0.5222 0.7091
vn 0.4738 -0.5222 -0.7091
vn -0.1664 -0.5222 0.8364
vn -0.1664 -0.5222 -0.8364
vn 0.1664 -0.5222 -0.8364
vn 0.1664 -0.5222 0.8364
vn -0.4738 -0.5222 -0.7091
vn 0.4738 -0.5222 0.7091
vn -0.7091 -0.5222 -0.4738
usemtl None
s off
f 15/1/1 14/2/1 30/3/1 31/4/1
f 8/5/2 7/6/2 23/7/2 24/8/2
f 16/9/3 15/1/3 31/4/3 32/10/3
f 9/11/4 8/5/4 24/8/4 25/12/4
f 2/13/5 1/14/5 17/15/5 18/16/5
f 1/14/6 16/9/6 32/10/6 17/15/6
f 10/17/7 9/11/7 25/12/7 26/18/7
f 3/19/8 2/13/8 18/16/8 19/20/8
f 11/21/9 10/17/9 26/18/9 27/22/9
f 4/23/10 3/19/10 19/20/10 20/24/10
f 12/25/11 11/21/11 27/22/11 28/26/11
f 5/27/12 4/23/12 20/24/12 21/28/12
f 13/29/13 12/25/13 28/26/13 29/30/13
f 6/31/14 5/27/14 21/28/14 22/32/14
f 14/2/15 13/29/15 29/30/15 30/3/15
f 7/6/16 6/31/16 22/32/16 23/7/16
f 22/32/17 21/28/17 37/33/17 38/34/17
f 30/3/18 29/30/18 45/35/18 46/36/18
f 23/7/19 22/32/19 38/34/19 39/37/19
f 31/4/20 30/3/20 46/36/20 47/38/20
f 24/8/21 23/7/21 39/37/21 40/39/21
f 32/10/22 31/4/22 47/38/22 48/40/22
f 25/12/23 24/8/23 40/39/23 41/41/23
f 18/16/24 17/15/24 33/42/24 34/43/24
f 17/15/25 32/10/25 48/40/25 33/42/25
f 26/18/26 25/12/26 41/41/26 42/44/26
f 19/20/27 18/16/27 34/43/27 35/45/27
f 27/22/28 26/18/28 42/44/28 43/46/28
f 20/24/29 19/20/29 35/45/29 36/47/29
f 28/26/30 27/22/30 43/46/30 44/48/30
f 21/28/31 20/24/31 36/47/31 37/33/31
f 29/30/32 28/26/32 44/48/32 45/35/32
f 43/46/33 42/44/33 58/49/33 59/50/33
f 36/47/34 35/45/34 51/51/34 52/52/34
f 44/48/35 43/46/35 59/50/35 60/53/35
f 37/33/36 36/47/36 52/52/36 53/54/36
f 45/35/37 44/48/37 60/53/37 61/55/37
f 38/34/38 37/33/38 53/54/38 54/56/38
f 46/36/39 45/35/39 61/55/39 62/57/39
f 39/37/40 38/34/40 54/56/40 55/58/40
f 47/38/41 46/36/41 62/57/41 63/59/41
f 40/39/42 39/37/42 55/58/42 56/60/42
f 48/40/43 47/38/43 63/59/43 64/61/43
f 41/41/44 40/39/44 56/60/44 57/62/44
f 34/43/45 33/42/45 49/63/45 50/64/45
f 33/42/46 48/40/46 64/61/46 49/63/46
f 42/44/47 41/41/47 57/62/47 58/49/47
f 35/45/48 34/43/48 50/64/48 51/51/48
f 64/61/3 63/59/3 79/65/3 80/66/3
f 57/62/4 56/60/4 72/67/4 73/68/4
f 50/64/5 49/63/5 65/69/5 66/70/5
f 49/63/6 64/61/6 80/66/6 65/69/6
f 58/49/7 57/62/7 73/68/7 74/71/7
f 51/51/8 50/64/8 66/70/8 67/72/8
f 59/50/9 58/49/9 74/71/9 75/73/9
f 52/52/10 51/51/10 67/72/10 68/74/10
f 60/53/11 59/50/11 75/73/11 76/75/11
f 53/54/12 52/52/12 68/74/12 69/76/12
f 61/55/13 60/53/13 76/75/13 77/77/13
f 54/56/14 53/54/14 69/76/14 70/78/14
f 62/57/15 61/55/15 77/77/15 78/79/15
f 55/58/16 54/56/16 70/78/16 71/80/16
f 63/59/1 62/57/1 78/79/1 79/65/1
f 56/60/2 55/58/2 71/80/2 72/67/2
f 78/79/49 77/77/49 93/81/49 94/82/49
f 71/80/50 70/78/50 86/83/50 87/84/50
f 79/65/51 78/79/51 94/82/51 95/85/51
f 72/67/52 71/80/52 87/84/52 88/86/52
f 80/66/53 79/65/53 95/85/53 96/87/53
f 73/68/54 72/67/54 88/86/54 89/88/54
f 66/70/55 65/69/55 81/89/55 82/90/55
f 65/69/56 80/66/56 96/87/56 81/89/56
f 74/71/57 73/68/57 89/88/57 90/91/57
f 67/72/58 66/70/58 82/90/58 83/92/58
f 75/73/59 74/71/59 90/91/59 91/93/59
f 68/74/60 67/72/60 83/92/60 84/94/60
f 76/75/61 75/73/61 91/93/61 92/95/61
f 69/76/62 68/74/62 84/94/62 85/96/62
f 77/77/63 76/75/63 92/95/63 93/81/63
f 70/78/64 69/76/64 85/96/64 86/83/64
f 84/94/65 83/92/65 99/97/65 100/98/65
f 92/95/66 91/93/66 107/99/66 108/100/66
f 85/96/67 84/94/67 100/98/67 101/101/67
f 93/81/68 92/95/68 108/100/68 109/102/68
f 86/83/69 85/96/69 101/101/69 102/103/69
f 94/82/70 93/81/70 109/102/70 110/104/70
f 87/84/71 86/83/71 102/103/71 103/105/71
f 95/85/72 94/82/72 110/104/72 111/106/72
f 88/86/73 87/84/73 103/105/73 104/107/73
f 96/87/74 95/85/74 111/106/74 112/108/74
f 89/88/75 88/86/75 104/107/75 105/109/75
f 82/90/76 81/89/76 97/110/76 98/111/76
f 81/89/77 96/87/77 112/108/77 97/110/77
f 90/91/78 89/88/78 105/109/78 106/112/78
f 83/92/79 82/90/79 98/111/79 99/97/79
f 91/93/80 90/91/80 106/112/80 107/99/80
f 105/109/4 104/107/4 120/113/4 121/114/4
f 98/111/5 97/110/5 113/115/5 114/116/5
f 97/110/6 112/108/6 128/117/6 113/115/6
f 106/112/7 105/109/7 121/114/7 122/118/7
f 99/97/8 98/111/8 114/116/8 115/119/8
f 107/99/9 106/112/9 122/118/9 123/120/9
f 100/98/10 99/97/10 115/119/10 116/121/10
f 108/100/11 107/99/11 123/120/11 124/122/11
f 101/101/12 100/98/12 116/121/12 117/123/12
f 109/102/13 108/100/13 124/122/13 125/124/13
f 102/103/14 101/101/14 117/123/14 118/125/14
f 110/104/15 109/102/15 125/124/15 126/126/15
f 103/105/16 102/103/16 118/125/16 119/127/16
f 111/106/1 110/104/1 126/126/1 127/128/1
f 104/107/2 103/105/2 119/127/2 120/113/2
f 112/108/3 111/106/3 127/128/3 128/117/3
f 126/126/81 125/124/81 141/129/81 142/130/81
f 119/127/81 118/125/81 134/131/81 135/132/81
f 127/128/81 126/126/81 142/130/81 143/133/81
f 120/113/81 119/127/81 135/132/81 136/134/81
f 128/117/81 127/128/81 143/133/81 144/135/81
f 121/114/81 120/113/81 136/134/81 137/136/81
f 114/116/81 113/115/81 129/137/81 130/138/81
f 113/115/81 128/117/81 144/135/81 129/137/81
f 122/118/81 121/114/81 137/136/81 138/139/81
f 115/119/81 114/116/81 130/138/81 131/140/81
f 123/120/81 122/118/81 138/139/81 139/141/81
f 116/121/81 115/119/81 131/140/81 132/142/81
f 124/122/81 123/120/81 139/141/81 140/143/81
f 117/123/81 116/121/81 132/142/81 133/144/81
f 125/124/81 124/122/81 140/143/81 141/129/81
f 118/125/81 117/123/81 133/144/81 134/131/81
f 132/142/10 131/140/10 147/145/10 148/146/10
f 140/143/11 139/141/11 155/147/11 156/148/11
f 133/144/12 132/142/12 148/146/12 149/149/12
f 141/129/13 140/143/13 156/148/13 157/150/13
f 134/131/14 133/144/14 149/149/14 150/151/14
f 142/130/15 141/129/15 157/150/15 158/152/15
f 135/132/16 134/131/16 150/151/16 151/153/16
f 143/133/1 142/130/1 158/152/1 159/154/1
f 136/134/2 135/132/2 151/153/2 152/155/2
f 144/135/3 143/133/3 159/154/3 160/156/3
f 137/136/4 136/134/4 152/155/4 153/157/4
f 130/138/5 129/137/5 145/158/5 146/159/5
f 129/137/6 144/135/6 160/156/6 145/158/6
f 138/139/7 137/136/7 153/157/7 154/160/7
f 131/140/8 130/138/8 146/159/8 147/145/8
f 139/141/9 138/139/9 154/160/9 155/147/9
f 153/157/82 152/155/82 168/161/82 169/162/82
f 146/159/83 145/158/83 161/163/83 162/164/83
f 145/158/84 160/156/84 176/165/84 161/163/84
f 154/160/85 153/157/85 169/162/85 170/166/85
f 147/145/86 146/159/86 162/164/86 163/167/86
f 155/147/87 154/160/87 170/166/87 171/168/87
f 148/146/88 147/145/88 163/167/88 164/169/88
f 156/148/89 155/147/89 171/168/89 172/170/89
f 149/149/90 148/146/90 164/169/90 165/171/90
f 157/150/91 156/148/91 172/170/91 173/172/91
f 150/151/92 149/149/92 165/171/92 166/173/92
f 158/152/93 157/150/93 173/172/93 174/174/93
f 151/153/94 150/151/94 166/173/94 167/175/94
f 159/154/95 158/152/95 174/174/95 175/176/95
f 152/155/96 151/153/96 167/175/96 168/161/96
f 160/156/97 159/154/97 175/176/97 176/165/97
f 174/174/98 173/172/98 189/177/98 190/178/98
f 167/175/98 166/173/98 182/179/98 183/180/98
f 175/176/98 174/174/98 190/178/98 191/181/98
f 168/161/98 167/175/98 183/180/98 184/182/98
f 176/165/98 175/176/98 191/181/98 192/183/98
f 169/162/98 168/161/98 184/182/98 185/184/98
f 162/164/98 161/163/98 177/185/98 178/186/98
f 161/163/98 176/165/98 192/183/98 177/185/98
f 170/166/98 169/162/98 185/184/98 186/187/98
f 163/167/98 162/164/98 178/186/98 179/188/98
f 171/168/98 170/166/98 186/187/98 187/189/98
f 164/169/98 163/167/98 179/188/98 180/190/98
f 172/170/98 171/168/98 187/189/98 188/191/98
f 165/171/98 164/169/98 180/190/98 181/192/98
f 173/172/98 172/170/98 188/191/98 189/177/98
f 166/173/98 165/171/98 181/192/98 182/179/98
f 188/191/99 187/189/99 203/193/99 204/194/99
f 181/192/100 180/190/100 196/195/100 197/196/100
f 189/177/101 188/191/101 204/194/101 205/197/101
f 182/179/102 181/192/102 197/196/102 198/198/102
f 190/178/103 189/177/103 205/197/103 206/199/103
f 183/180/104 182/179/104 198/198/104 199/200/104
f 191/181/105 190/178/105 206/199/105 207/201/105
f 184/182/106 183/180/106 199/200/106 200/202/106
f 192/183/107 191/181/107 207/201/107 208/203/107
f 185/184/108 184/182/108 200/202/108 201/204/108
f 178/186/109 177/185/109 193/205/109 194/206/109
f 177/185/110 192/183/110 208/203/110 193/205/110
f 186/187/111 185/184/111 201/204/111 202/207/111
f 179/188/112 178/186/112 194/206/112 195/208/112
f 187/189/113 186/187/113 202/207/113 203/193/113
f 180/190/114 179/188/114 195/208/114 196/195/114
f 194/206/98 193/205/98 209/209/98 210/210/98
f 193/205/98 208/203/98 224/211/98 209/209/98
f 202/207/98 201/204/98 217/212/98 218/213/98
f 195/208/98 194/206/98 210/210/98 211/214/98
f 203/193/98 202/207/98 218/213/98 219/215/98
f 196/195/98 195/208/98 211/214/98 212/216/98
f 204/194/98 203/193/98 219/215/98 220/217/98
f 197/196/98 196/195/98 212/216/98 213/218/98
f 205/197/98 204/194/98 220/217/98 221/219/98
f 198/198/98 197/196/98 213/218/98 214/220/98
f 206/199/98 205/197/98 221/219/98 222/221/98
f 199/200/98 198/198/98 214/220/98 215/222/98
f 207/201/98 206/199/98 222/221/98 223/223/98
f 200/202/98 199/200/98 215/222/98 216/224/98
f 208/203/98 207/201/98 223/223/98 224/211/98
f 201/204/98 200/202/98 216/224/98 217/212/98
f 14/2/81 15/1/81 239/225/81 238/226/81
f 7/6/81 8/5/81 232/227/81 231/228/81
f 15/1/81 16/9/81 240/229/81 239/225/81
f 8/5/81 9/11/81 233/230/81 232/227/81
f 1/14/81 2/13/81 226/231/81 225/232/81
f 16/9/81 1/14/81 225/232/81 240/229/81
f 9/11/81 10/17/81 234/233/81 233/230/81
f 2/13/81 3/19/81 227/234/81 226/231/81
f 10/17/81 11/21/81 235/235/81 234/233/81
f 3/19/81 4/23/81 228/236/81 227/234/81
f 11/21/81 12/25/81 236/237/81 235/235/81
f 4/23/81 5/27/81 229/238/81 228/236/81
f 12/25/81 13/29/81 237/239/81 236/237/81
f 5/27/81 6/31/81 230/240/81 229/238/81
f 13/29/81 14/2/81 238/226/81 237/239/81
f 6/31/81 7/6/81 231/228/81 230/240/81
